<?xml version="1.0" standalone="no"?>
<!DOCTYPE svg PUBLIC "-//W3C//DTD SVG 20010904//EN"
 "http://www.w3.org/TR/2001/REC-SVG-20010904/DTD/svg10.dtd">
<svg version="1.0" xmlns="http://www.w3.org/2000/svg"
 width="225.000000pt" height="225.000000pt" viewBox="0 0 225.000000 225.000000"
 preserveAspectRatio="xMidYMid meet">
<metadata>
Created by potrace 1.14, written by Peter Selinger 2001-2017
</metadata>
<g transform="translate(0.000000,225.000000) scale(0.100000,-0.100000)"
fill="#000000" stroke="none">
<path d="M687 1624 c-4 -4 -7 -40 -7 -80 l0 -73 -57 -3 -58 -3 -3 -392 -2
-393 225 0 c193 0 225 2 225 15 0 13 -30 15 -210 15 l-210 0 0 360 0 360 45 0
45 0 2 -287 3 -288 90 -7 c173 -14 281 -54 319 -119 20 -35 48 -37 61 -6 27
60 157 110 325 125 l85 7 3 288 2 287 45 0 45 0 0 -360 0 -360 -215 0 c-184 0
-215 -2 -215 -15 0 -13 32 -15 230 -15 l230 0 0 395 0 395 -60 0 -60 0 0 75
c0 54 -4 77 -14 81 -24 9 -210 -15 -277 -36 -36 -11 -86 -35 -111 -54 l-46
-35 -18 21 c-29 31 -110 68 -183 83 -85 17 -225 28 -234 19z m248 -58 c69 -18
129 -50 154 -82 20 -26 21 -37 21 -365 0 -187 -2 -339 -5 -339 -2 0 -21 11
-41 25 -53 36 -154 65 -256 72 l-88 6 0 355 0 355 83 -7 c45 -3 105 -12 132
-20z m595 -331 l0 -355 -49 0 c-62 0 -186 -23 -236 -45 -22 -8 -54 -27 -72
-41 l-33 -25 0 345 0 344 32 32 c47 47 89 63 243 94 11 2 41 4 68 5 l47 1 0
-355z"/>
<path d="M796 1382 c-9 -15 0 -18 69 -31 33 -6 82 -18 108 -27 50 -17 63 -14
54 9 -10 27 -217 71 -231 49z"/>
<path d="M795 1231 c-8 -14 7 -20 72 -32 32 -5 80 -17 106 -26 51 -16 63 -13
54 11 -3 8 -42 23 -95 35 -99 23 -128 26 -137 12z"/>
<path d="M795 1081 c-7 -13 27 -31 57 -31 13 0 56 -9 96 -20 85 -24 82 -24 82
-6 0 17 -37 32 -125 51 -83 17 -102 18 -110 6z"/>
<path d="M1312 1370 c-85 -23 -92 -26 -92 -47 0 -11 6 -14 23 -9 12 4 51 14
87 22 36 8 78 18 93 22 16 4 29 12 30 17 3 17 -65 15 -141 -5z"/>
<path d="M1335 1225 c-85 -19 -115 -32 -115 -51 0 -12 6 -15 23 -10 47 13 144
35 180 41 23 4 37 11 34 18 -5 17 -53 18 -122 2z"/>
<path d="M1340 1075 c-86 -19 -120 -34 -120 -52 0 -11 6 -14 23 -9 19 6 132
30 195 42 30 6 23 28 -9 31 -13 1 -53 -5 -89 -12z"/>
</g>
</svg>
